<svg height="510" width="720" xmlns="http://www.w3.org/2000/svg">
<rect height="510" fill="#555" width="720"></rect>
<text fill="#7f7" font-family="Courier New" font-size="12" xml:space="preserve">
<tspan x="10" y="26">4 megabytes installed</tspan>
<tspan x="10" y="42"></tspan>
<tspan x="10" y="58">node_modules</tspan>
<tspan x="10" y="74">└─┬ levelgraph@2.0.1 </tspan>
<tspan x="10" y="90">  ├── callback-stream@1.1.0 </tspan>
<tspan x="10" y="106">  ├── inherits@2.0.3 </tspan>
<tspan x="10" y="122">  ├─┬ level-ws@0.0.1 </tspan>
<tspan x="10" y="138">  │ ├─┬ readable-stream@2.0.6 </tspan>
<tspan x="10" y="154">  │ │ └── string_decoder@0.10.31 </tspan>
<tspan x="10" y="170">  │ └─┬ xtend@2.1.2 </tspan>
<tspan x="10" y="186">  │   └── object-keys@0.4.0 </tspan>
<tspan x="10" y="202">  ├── lodash.keys@4.2.0 </tspan>
<tspan x="10" y="218">  ├─┬ pump@1.0.2 </tspan>
<tspan x="10" y="234">  │ ├── end-of-stream@1.4.0 </tspan>
<tspan x="10" y="250">  │ └─┬ once@1.4.0 </tspan>
<tspan x="10" y="266">  │   └── wrappy@1.0.2 </tspan>
<tspan x="10" y="282">  ├─┬ readable-stream@2.2.9 </tspan>
<tspan x="10" y="298">  │ ├── buffer-shims@1.0.0 </tspan>
<tspan x="10" y="314">  │ ├── core-util-is@1.0.2 </tspan>
<tspan x="10" y="330">  │ ├── isarray@1.0.0 </tspan>
<tspan x="10" y="346">  │ ├── process-nextick-args@1.0.7 </tspan>
<tspan x="10" y="362">  │ ├── string_decoder@1.0.0 </tspan>
<tspan x="10" y="378">  │ └── util-deprecate@1.0.2 </tspan>
<tspan x="10" y="394">  ├─┬ steed@1.1.3 </tspan>
<tspan x="10" y="410">  │ ├── fastfall@1.5.1 </tspan>
<tspan x="10" y="426">  │ ├── fastparallel@2.3.0 </tspan>
<tspan x="10" y="442">  │ ├── fastq@1.5.0 </tspan>
<tspan x="10" y="458">  │ ├── fastseries@1.7.2 </tspan>
<tspan x="10" y="474">  │ └── reusify@1.0.1 </tspan>
<tspan x="10" y="490">  └── xtend@4.0.1</tspan>
</text>
</svg>
